<svg xmlns="http://www.w3.org/2000/svg" width="43.59" height="43.68" viewBox="0 0 43.59 43.68"><title>Asset 7</title><g id="Layer_2" data-name="Layer 2"><g id="Layer_1-2" data-name="Layer 1"><g id="_4DJRiJ.tif" data-name="4DJRiJ.tif"><path d="M43.59,35.51v.35A7.62,7.62,0,0,1,41.9,40a9.39,9.39,0,0,1-4.67,3.32,8.89,8.89,0,0,1-2.41.29H8.75A8,8,0,0,1,2.8,41.18,9.16,9.16,0,0,1,.16,36.74,7,7,0,0,1,0,35Q0,21.8,0,8.59A8.4,8.4,0,0,1,3.52,1.83,7.91,7.91,0,0,1,7.5.07,11,11,0,0,1,8.91,0h25.9C38.45,0,41,1.85,42.73,4.91a5.8,5.8,0,0,1,.82,2.78V35A1.18,1.18,0,0,0,43.59,35.51Z" fill="#010101"/><path d="M43.59,35.51c-.13-.1-.08-.25-.08-.37V8.2a.05.05,0,0,1,.08,0Z" fill="#2c2b2a"/><path d="M35,43.6a.22.22,0,0,0,0,.08" fill="#b4b2b2"/><path d="M8.67,43.68a.11.11,0,0,0,0-.08" fill="#b4b2b2"/><path d="M43.59,7.69v.53l-.08,0" fill="#b3b0b0"/><path d="M21.76,42.63c-4.16,0-8.33,0-12.49,0A8,8,0,0,1,3.2,39.73,8.66,8.66,0,0,1,1,33.64c0-8.06,0-16.12,0-24.17A8.15,8.15,0,0,1,3.23,3.92,8.5,8.5,0,0,1,8,1.15,9.8,9.8,0,0,1,9.79,1H34.05A8.74,8.74,0,0,1,42.48,7.4a7.66,7.66,0,0,1,.3,2.13V34.15a8.68,8.68,0,0,1-7.13,8.38,8.29,8.29,0,0,1-1.32.1Z" fill="#fff"/><path d="M22.48,26.75l5.32,1.16,8.31,1.81c1.49.32,3,.67,4.47,1,.39.08.26.2.12.39a2.65,2.65,0,0,1-3.81,0l-.15-.21a2.34,2.34,0,0,1-2.18,1,2,2,0,0,1-2-1.19,2.49,2.49,0,0,1-4.28,0,2.53,2.53,0,0,1-3,1.13,1.79,1.79,0,0,1-1.14-.7c-.13-.17-.2-.21-.34,0a2.12,2.12,0,0,1-1.82.81c-5.75,0-11.5,0-17.24,0-.36,0-.44-.1-.44-.44,0-2.73,0-5.45,0-8.18,0-.36.08-.45.45-.36,3.75.83,7.52,1.64,11.28,2.46,1.35.3,2.71.6,4.13.87A3.47,3.47,0,0,1,19,22a3.07,3.07,0,0,1,1.72-1.71,3.35,3.35,0,0,1,4.46,1.75,3.21,3.21,0,0,1-.19,3C24.52,25.8,24.49,25.8,22.48,26.75Z" fill="#010101"/><path d="M15.69,13.44l6.75,1.42,11.8,2.5,5.35,1.1c.43.09.57.34.36.74-.79,1.47-1.6,2.92-2.4,4.38-.08.16-.16.19-.34.15-2.76-.57-5.53-1.12-8.29-1.68-.9-.19-1.8-.41-2.71-.57a.51.51,0,0,1-.42-.32,3.7,3.7,0,0,0-3.33-2.24,3.94,3.94,0,0,0-2.76.87A.76.76,0,0,1,19,20c-3-.64-6-1.22-9-1.91a6,6,0,0,1-3.48-2.51,10.31,10.31,0,0,1-1.6-4c-.06-.3-.08-.45.35-.35,2.41.57,4.84,1.09,7.26,1.63a1.06,1.06,0,0,0,.76-.1c1.6-.83,3.21-1.63,4.81-2.45.15-.08.28-.09.36.1l0,0c.37.62.37.63-.21,1.06Z" fill="#010101"/><path d="M18.32,21.68s0,.05,0,.06c-.11.38-.12.91-.37,1.09s-.75-.1-1.13-.18L5.28,20.21,4.17,20c.23-.41.36-.93.69-1.14s.81.1,1.22.19l11.86,2.61Z" fill="#010201"/><path d="M38.42,26s0,0,0,.07c-.2,1-.19.95-1.16.74l-9.32-1.92c-.53-.11-1.06-.24-1.6-.33-.2,0-.25-.11-.26-.31,0-1.05,0-1.06,1-.85L38,25.66C38.14,25.7,38.49,25.62,38.42,26Z" fill="#020202"/><path d="M23.87,23.39a1.65,1.65,0,0,1-1.82,1.79c-1.14-.06-1.75-.45-1.82-1.8a1.82,1.82,0,0,1,3.64,0Z" fill="#fff"/></g></g></g></svg>