<svg xmlns="http://www.w3.org/2000/svg" width="35.12" height="50.64" viewBox="0 0 35.12 50.64"><title>Asset 6</title><g id="Layer_2" data-name="Layer 2"><g id="Layer_1-2" data-name="Layer 1"><rect x="0.5" y="0.5" width="32.92" height="49.64" rx="12" stroke="#231f20" stroke-miterlimit="10"/><rect x="5.19" y="7.96" width="23.54" height="34" fill="#fff" stroke="#231f20" stroke-miterlimit="10"/><ellipse cx="16.81" cy="4.1" rx="1.04" ry="1.02" fill="#fff"/><ellipse cx="16.93" cy="45.88" rx="2.16" ry="2.1" fill="#fff"/><path d="M8.83,16.7l1,1.28a.63.63,0,0,0,1-.27,7.65,7.65,0,0,1,1.82-3c.52-.61-.36-1.5-.89-.88a9,9,0,0,0-2.13,3.51l1-.28-1-1.28c-.49-.64-1.37.25-.88.88Z" fill="#231f20"/><path d="M8.83,24.13l1,1.28a.62.62,0,0,0,1-.28,7.8,7.8,0,0,1,1.82-3c.52-.6-.36-1.49-.89-.88A9,9,0,0,0,9.67,24.8l1-.28-1-1.28c-.49-.63-1.37.26-.88.89Z" fill="#231f20"/><path d="M8.83,31.55l1,1.28a.63.63,0,0,0,1-.27,7.65,7.65,0,0,1,1.82-3c.52-.61-.36-1.5-.89-.89a9,9,0,0,0-2.13,3.51l1-.27-1-1.28c-.49-.64-1.37.25-.88.88Z" fill="#231f20"/><rect x="14.78" y="15.22" width="9.9" height="1.41" stroke="#231f20" stroke-miterlimit="10" stroke-width="0.5"/><rect x="14.78" y="23.03" width="9.9" height="1.41" stroke="#231f20" stroke-miterlimit="10" stroke-width="0.5"/><rect x="14.78" y="30.07" width="9.9" height="1.41" stroke="#231f20" stroke-miterlimit="10" stroke-width="0.5"/><path d="M27.42,50a4.86,4.86,0,0,0-2.36-3c-1.48-.91-2.86-2-4.28-3a2.35,2.35,0,0,1-.91-1.28,1,1,0,0,1,.4-1.2A2,2,0,0,1,22,41.11l.79.21c0-.16-.07-.28-.12-.4-.65-1.56-1.31-3.11-2-4.67A1.37,1.37,0,0,1,21,34.48a2.17,2.17,0,0,1,2.17-.55,1.3,1.3,0,0,1,.76.76c.27.64.55,1.27.79,1.91.1.25.21.29.44.17s.43-.17.64-.26a1.45,1.45,0,0,1,1.57.2.4.4,0,0,0,.49.07c.25-.12.51-.21.76-.31a1.12,1.12,0,0,1,1.18.13.56.56,0,0,0,.66,0,4.29,4.29,0,0,1,.59-.24,1.33,1.33,0,0,1,1.66.5,5.49,5.49,0,0,1,.34.63c.2.45.35.93.58,1.36a10.92,10.92,0,0,1,1.27,5.9A9.41,9.41,0,0,0,35,46.92Z" fill="#020202" stroke="#f1f2f2" stroke-miterlimit="10" stroke-width="0.2"/><path d="M23.3,39.72c-.54-1.29-1.08-2.57-1.63-3.85-.1-.25-.18-.5.07-.69a1.31,1.31,0,0,1,1.07-.33c.18,0,.2.22.26.36.68,1.59,1.37,3.18,2,4.79.17.44.38.27.64.17s.53-.17.32-.57-.44-1-.67-1.55c-.09-.19-.06-.28.14-.34s.37-.15.56-.22c.51-.2.72-.14,1,.35s.37.82.53,1.24c.09.24.2.31.44.18a1.27,1.27,0,0,1,.32-.13c.27-.07.31-.21.18-.43a.94.94,0,0,1-.1-.23c-.3-.71-.29-.68.42-1a.48.48,0,0,1,.74.29c.2.44.39.88.56,1.32.08.22.17.27.4.18.67-.26.68-.25.4-.92s-.28-.66.41-1c.43-.19.59.05.72.34.29.66.52,1.35.85,2a8.72,8.72,0,0,1,1,4.61,16.26,16.26,0,0,0,0,1.71.32.32,0,0,1-.24.37c-1.81.72-3.62,1.44-5.43,2.18-.24.09-.34,0-.4-.18a2.58,2.58,0,0,0-1.21-1.49c-1.71-1.15-3.39-2.35-5.08-3.54a1.53,1.53,0,0,1-.5-.45c-.33-.5-.18-.81.46-.86a2.72,2.72,0,0,1,2.21,1.32,3.25,3.25,0,0,1,.18.43c.1.44.32.46.72.29s.42-.25.26-.59C24.34,42.24,23.83,41,23.3,39.72Z" fill="#fff" stroke="#f1f2f2" stroke-miterlimit="10" stroke-width="0.2"/></g></g></svg>